HIERARCHY
ROOT Hips
{
	OFFSET 0.00000 0.00000 0.00000
	CHANNELS 6 Xposition Yposition Zposition Zrotation Yrotation Xrotation 
	JOINT LHipJoint
	{
		OFFSET 0 0 0
		CHANNELS 3 Zrotation Yrotation Xrotation
		JOINT LeftUpLeg
		{
			OFFSET 1.30186 -1.90722 0.65024
			CHANNELS 3 Zrotation Yrotation Xrotation
			JOINT LeftLeg
			{
				OFFSET 2.56413 -7.04489 0.00000
				CHANNELS 3 Zrotation Yrotation Xrotation
				JOINT LeftFoot
				{
					OFFSET 2.79321 -7.67428 0.00000
					CHANNELS 3 Zrotation Yrotation Xrotation
					JOINT LeftToeBase
					{
						OFFSET 0.15723 -0.43198 2.08537
						CHANNELS 3 Zrotation Yrotation Xrotation
						End Site
						{
							OFFSET 0.00000 -0.00000 1.07411
						}
					}
				}
			}
		}
	}
	JOINT RHipJoint
	{
		OFFSET 0 0 0
		CHANNELS 3 Zrotation Yrotation Xrotation
		JOINT RightUpLeg
		{
			OFFSET -1.28627 -1.90723 0.65024
			CHANNELS 3 Zrotation Yrotation Xrotation
			JOINT RightLeg
			{
				OFFSET -2.56567 -7.04913 0.00000
				CHANNELS 3 Zrotation Yrotation Xrotation
				JOINT RightFoot
				{
					OFFSET -2.75597 -7.57198 0.00000
					CHANNELS 3 Zrotation Yrotation Xrotation
					JOINT RightToeBase
					{
						OFFSET -0.17500 -0.48081 2.22901
						CHANNELS 3 Zrotation Yrotation Xrotation
						End Site
						{
							OFFSET -0.00000 -0.00000 1.14762
						}
					}
				}
			}
		}
	}
	JOINT LowerBack
	{
		OFFSET 0 0 0
		CHANNELS 3 Zrotation Yrotation Xrotation
		JOINT Spine
		{
			OFFSET -0.04522 2.07467 -0.16566
			CHANNELS 3 Zrotation Yrotation Xrotation
			JOINT Spine1
			{
				OFFSET -0.01178 2.08825 -0.05393
				CHANNELS 3 Zrotation Yrotation Xrotation
				JOINT Neck
				{
					OFFSET 0 0 0
					CHANNELS 3 Zrotation Yrotation Xrotation
					JOINT Neck1
					{
						OFFSET -0.05182 1.80489 0.16014
						CHANNELS 3 Zrotation Yrotation Xrotation
						JOINT Head
						{
							OFFSET 0.14739 1.78840 -0.33342
							CHANNELS 3 Zrotation Yrotation Xrotation
							End Site
							{
								OFFSET 0.04364 1.83899 -0.13460
							}
						}
					}
				}
				JOINT LeftShoulder
				{
					OFFSET 0 0 0
					CHANNELS 3 Zrotation Yrotation Xrotation
					JOINT LeftArm
					{
						OFFSET 3.01264 1.29090 -0.06579
						CHANNELS 3 Zrotation Yrotation Xrotation
						JOINT LeftForeArm
						{
							OFFSET 5.55680 -0.00000 0.00000
							CHANNELS 3 Zrotation Yrotation Xrotation
							JOINT LeftHand
							{
								OFFSET 3.63979 -0.00000 -0.00000
								CHANNELS 3 Zrotation Yrotation Xrotation
								JOINT LeftFingerBase
								{
									OFFSET 0 0 0
									CHANNELS 3 Zrotation Yrotation Xrotation
									JOINT LeftHandIndex1
									{
										OFFSET 0.56942 -0.00000 -0.00000
										CHANNELS 3 Zrotation Yrotation Xrotation
										End Site
										{
											OFFSET 0.45908 -0.00000 -0.00000
										}
									}
								}
								JOINT LThumb
								{
									OFFSET 0 0 0
									CHANNELS 3 Zrotation Yrotation Xrotation
									End Site
									{
										OFFSET 0.46609 -0.00000 0.46609
									}
								}
							}
						}
					}
				}
				JOINT RightShoulder
				{
					OFFSET 0 0 0
					CHANNELS 3 Zrotation Yrotation Xrotation
					JOINT RightArm
					{
						OFFSET -3.15796 1.37283 -0.36748
						CHANNELS 3 Zrotation Yrotation Xrotation
						JOINT RightForeArm
						{
							OFFSET -5.34339 -0.00000 0.00000
							CHANNELS 3 Zrotation Yrotation Xrotation
							JOINT RightHand
							{
								OFFSET -3.65101 -0.00000 -0.00000
								CHANNELS 3 Zrotation Yrotation Xrotation
								JOINT RightFingerBase
								{
									OFFSET 0 0 0
									CHANNELS 3 Zrotation Yrotation Xrotation
									JOINT RightHandIndex1
									{
										OFFSET -0.69425 -0.00000 -0.00000
										CHANNELS 3 Zrotation Yrotation Xrotation
										End Site
										{
											OFFSET -0.55972 -0.00000 -0.00000
										}
									}
								}
								JOINT RThumb
								{
									OFFSET 0 0 0
									CHANNELS 3 Zrotation Yrotation Xrotation
									End Site
									{
										OFFSET -0.56827 -0.00000 0.56827
									}
								}
							}
						}
					}
				}
			}
		}
	}
}
MOTION
Frames: 10
Frame Time: .0083333
9.3604 17.5835 -26.2409 0 0 0 0 0 0 -21 0 0 0 0 0 0 0 0 0 0 0 0 0 0 21 0 0 0 0 0 0 0 0 0 0 0 0 0 0 0 0 0 0 0 0 0 0 -16 0 0 21 0 0 11 0 0 0 -8 0 0 0 0 0 0 0 0 0 0 0 0 0 0 0 0 0 0 0 0 8 0 0 0 0 0 0 0 0 0 0 0 0 0 0 0 0 0
9.3604 17.5835 -26.2409 -2.2634 -14.6467 8.2507 0.0000 0.0000 0.0000 -11.3356 -14.8352 -35.6779 2.6795 10.1572 29.4874 -0.0371 6.9808 -9.0178 0.5700 -4.8351 -13.4389 0.0000 0.0000 0.0000 23.4712 -0.3539 20.9282 -0.0552 -1.5166 4.1715 0.0344 3.7434 3.2687 -0.4394 4.2534 -11.7908 -0.1561 1.2506 3.4855 0.3657 1.6562 2.1308 0.4084 0.8222 0.2157 -4.5037 -3.5579 -13.5519 3.4209 -4.2546 4.6651 1.4679 -2.0119 3.7434 0.0000 -0.0000 0.0000 -90.4440 9.9405 11.0138 11.2805 -18.7169 -1.8649 -0.0000 -0.0000 7.4540 22.4775 14.5684 5.9416 -7.1250 0.0000 -0.0000 -4.7346 45.6351 -0.0744 0.0000 -0.0000 0.0000 85.4020 -4.9386 11.1408 -17.8000 27.9003 -4.4552 0.0000 0.0000 2.1580 -25.9396 35.1610 -15.6488 7.1250 -0.0000 -0.0000 3.8669 8.0152 4.3777
9.3571 17.5962 -26.0551 -1.8218 -14.7931 8.1125 0.0000 0.0000 0.0000 -12.0307 -14.9819 -35.0924 2.7009 10.1944 29.6085 -0.0524 6.9736 -8.5765 0.4223 -4.1709 -11.5581 0.0000 0.0000 0.0000 22.9423 0.4912 19.0639 -0.2228 -3.0386 8.3863 0.0405 3.9178 3.1499 -0.0915 1.9510 -5.3702 -0.7345 1.2198 3.2591 0.2267 1.6006 2.1600 0.5972 0.7894 0.3609 -4.9574 -3.5406 -13.9931 3.9823 -4.1891 5.0743 1.7092 -1.9533 3.9593 0.0000 -0.0000 0.0000 -90.3930 9.6233 9.4416 11.0178 -18.3155 -1.7815 -0.0000 -0.0000 10.2122 20.7691 17.1063 6.3652 -7.1250 0.0000 -0.0000 -6.9048 48.0773 -0.5265 0.0000 -0.0000 0.0000 85.4659 -5.0594 10.3835 -17.9983 28.1549 -4.5484 0.0000 0.0000 2.2365 -25.9863 35.7708 -15.9037 7.1250 -0.0000 -0.0000 3.9623 8.6492 4.5231
9.3488 17.6088 -25.8790 -1.5197 -14.8492 7.8833 0.0000 0.0000 0.0000 -12.7051 -14.6521 -34.6133 2.7473 10.2742 29.8693 -0.0374 6.5052 -8.2494 0.2843 -3.4294 -9.4765 0.0000 0.0000 0.0000 22.5942 1.0076 17.7826 -0.4371 -4.2425 11.7600 0.0439 4.1713 3.5454 -0.0373 1.2461 -3.4262 -1.2025 1.2050 3.2513 0.0943 1.5694 2.2380 0.7258 0.7691 0.4371 -5.3724 -3.5814 -14.6747 4.6005 -4.2064 5.6451 1.9534 -1.9264 4.2680 0.0000 -0.0000 0.0000 -90.0919 9.3037 8.5471 10.6992 -17.8257 -1.6827 -0.0000 -0.0000 12.0032 19.3684 17.5946 6.0656 -7.1250 0.0000 -0.0000 -8.3676 48.3794 -0.7021 0.0000 -0.0000 0.0000 85.6298 -5.1178 9.6162 -18.2036 28.4171 -4.6457 0.0000 0.0000 2.2886 -25.9246 35.4951 -15.7617 7.1250 -0.0000 -0.0000 3.9406 8.3522 4.4811
9.3428 17.6182 -25.7067 -1.5959 -14.8397 7.9207 0.0000 0.0000 0.0000 -12.8429 -14.5735 -34.3077 2.8040 10.3708 30.1861 -0.0271 6.3667 -8.3349 0.2158 -2.9905 -8.2523 0.0000 0.0000 0.0000 22.5850 1.3458 16.6169 -0.6468 -5.1449 14.3223 0.0248 4.2381 4.9353 -0.0643 1.6361 -4.5009 -1.2591 1.1950 3.1049 0.0732 1.5567 2.1966 0.7390 0.7624 0.4758 -5.5505 -3.6302 -14.7956 4.9277 -4.2671 5.7588 2.0764 -1.9390 4.3374 0.0000 -0.0000 0.0000 -89.9229 8.7611 7.2225 10.1298 -16.9423 -1.5126 -0.0000 -0.0000 13.5234 19.0536 16.2970 5.5357 -7.1250 0.0000 -0.0000 -8.3155 46.9947 -0.4121 0.0000 -0.0000 0.0000 85.7060 -5.3995 9.0816 -18.5574 28.8649 -4.8153 0.0000 0.0000 1.8007 -26.0374 34.5904 -15.5012 7.1250 -0.0000 -0.0000 3.7035 7.4566 4.1609
9.3369 17.6264 -25.5380 -1.5095 -14.9490 7.9199 0.0000 0.0000 0.0000 -13.1670 -14.4112 -34.0104 2.8824 10.5022 30.6187 -0.0139 6.3244 -8.6488 0.1902 -2.8084 -7.7457 0.0000 0.0000 0.0000 22.3996 1.8231 15.4308 -0.8847 -5.9958 16.7722 -0.0200 4.2049 6.7358 -0.1020 2.0591 -5.6691 -1.5433 1.1915 3.1531 0.0277 1.5434 2.0073 0.8482 0.7560 0.2492 -5.4045 -3.6386 -14.6354 4.8628 -4.3057 5.6865 2.0320 -1.9608 4.2869 -0.0000 -0.0000 0.0000 -89.9016 8.3523 5.0656 9.5466 -16.0273 -1.3471 -0.0000 -0.0000 15.8247 19.3506 16.0031 5.5301 -7.1250 0.0000 -0.0000 -7.9633 46.7309 -0.3423 -0.0000 -0.0000 0.0000 85.7829 -5.8396 8.4173 -18.8958 29.2890 -4.9798 0.0000 0.0000 1.2419 -26.1966 34.2641 -15.4824 7.1250 -0.0000 -0.0000 3.5542 7.1628 3.9769
9.3349 17.6392 -25.3619 -1.1574 -15.2077 7.7100 0.0000 0.0000 0.0000 -13.9050 -14.0172 -33.5728 2.9826 10.6668 31.1644 0.0178 6.0157 -9.0565 0.1975 -2.8614 -7.8932 0.0000 0.0000 0.0000 21.7465 2.2139 14.3428 -1.1559 -6.8259 19.2006 -0.1112 3.9050 8.9497 -0.0342 1.1932 -3.2805 -2.0305 1.2186 3.2575 -0.1202 1.5631 1.8881 0.9648 0.7650 0.0597 -5.1309 -3.5948 -14.5923 4.6628 -4.2844 5.7825 1.9280 -1.9561 4.2979 -0.0000 -0.0000 0.0000 -89.7357 8.1598 3.7648 9.1273 -15.3631 -1.2336 -0.0000 -0.0000 17.1914 19.8750 16.3986 5.8273 -7.1250 0.0000 -0.0000 -7.5714 47.2128 -0.4157 -0.0000 -0.0000 0.0000 85.9378 -6.1202 7.5019 -19.1320 29.5824 -5.0959 0.0000 0.0000 1.1777 -26.3501 34.7439 -15.7637 7.1250 -0.0000 -0.0000 3.5636 7.6944 4.0160
9.3358 17.6477 -25.1900 -1.1195 -15.3010 7.5712 0.0000 0.0000 0.0000 -14.2581 -13.8213 -33.1251 3.0866 10.8340 31.7219 0.0653 5.4433 -9.5015 0.1386 -2.3991 -6.6101 0.0000 0.0000 0.0000 21.4570 2.6034 13.2169 -1.4674 -7.6553 21.6720 -0.2603 3.1038 11.2939 -0.0165 0.8289 -2.2780 -2.0909 1.1824 3.3044 -0.1911 1.5108 1.7941 0.9254 0.7407 -0.0608 -5.2133 -3.5398 -14.3870 4.8768 -4.2278 5.8328 2.0147 -1.9201 4.2851 0.0000 -0.0000 0.0000 -89.4993 8.0587 3.1491 8.8786 -14.9668 -1.1686 -0.0000 -0.0000 17.7668 19.4820 16.3716 5.6944 -7.1250 0.0000 -0.0000 -7.9335 47.1305 -0.4196 0.0000 -0.0000 0.0000 86.0109 -6.3461 6.7676 -19.3403 29.8393 -5.1991 0.0000 0.0000 1.2322 -26.2771 35.3308 -15.9353 7.1250 -0.0000 -0.0000 3.7187 8.2759 4.2236
9.3385 17.6525 -25.0251 -1.3162 -15.3747 7.5793 0.0000 0.0000 0.0000 -14.2552 -13.8948 -32.6850 3.1759 10.9745 32.1939 0.1221 4.8821 -10.1504 0.0656 -1.6520 -4.5449 0.0000 0.0000 0.0000 21.4668 3.0925 11.8878 -1.8302 -8.5031 24.2530 -0.4206 2.6786 13.5254 -0.0565 -1.5340 4.2196 -1.9226 1.1202 3.3284 -0.1789 1.4311 1.6673 0.8445 0.7041 -0.1981 -5.4047 -3.4790 -14.1682 5.2251 -4.1545 5.7912 2.1624 -1.8712 4.2461 -0.0000 -0.0000 0.0000 -89.3709 7.8246 1.7520 8.6374 -14.5807 -1.1071 -0.0000 -0.0000 19.4184 18.5708 15.8870 5.2547 -7.1250 0.0000 -0.0000 -8.6600 46.5071 -0.3245 -0.0000 -0.0000 0.0000 85.9344 -6.6294 6.4097 -19.5896 30.1447 -5.3237 0.0000 0.0000 0.7039 -25.7581 35.5875 -15.6846 7.1250 -0.0000 -0.0000 4.0482 8.4035 4.6070
9.3402 17.6637 -24.8598 -1.1793 -15.6039 7.4655 0.0000 0.0000 0.0000 -14.6462 -13.9083 -32.1184 3.2461 11.0831 32.5607 0.1712 4.6009 -10.8669 0.0420 -1.3221 -3.6354 0.0000 0.0000 0.0000 21.0981 3.7260 10.4859 -2.2536 -9.3755 26.9771 -0.6143 2.5950 15.9726 -0.0853 -1.8838 5.1845 -2.1345 1.1120 3.2208 -0.2353 1.4170 1.7196 0.9086 0.6946 -0.0874 -5.2819 -3.4153 -14.2680 5.1621 -4.0779 5.7002 2.1287 -1.8332 4.2259 0.0000 -0.0000 0.0000 -89.2612 7.3203 0.6727 8.4162 -14.2252 -1.0520 -0.0000 -0.0000 20.8644 18.5938 15.8453 5.2482 -7.1250 0.0000 -0.0000 -8.6280 46.4673 -0.3147 0.0000 -0.0000 0.0000 85.8313 -6.6217 5.9629 -19.8646 30.4789 -5.4625 0.0000 0.0000 0.2415 -25.2672 35.7154 -15.4046 7.1250 -0.0000 -0.0000 4.3364 8.4084 4.9370
